<?xml version="1.0" encoding="utf-8"?>
<!-- Generator: Adobe Illustrator 22.0.1, SVG Export Plug-In . SVG Version: 6.00 Build 0)  -->
<svg version="1.1" xmlns="http://www.w3.org/2000/svg" xmlns:xlink="http://www.w3.org/1999/xlink" x="0px" y="0px"
	 viewBox="0 0 750 300" style="enable-background:new 0 0 750 300;" xml:space="preserve">
<style type="text/css">
	.st0{display:none;}
	.st1{display:inline;}
	.st2{clip-path:url(#SVGID_2_);fill:#D9D6D6;}
	.st3{clip-path:url(#SVGID_2_);fill:#BFBFBD;}
	.st4{display:inline;fill:#CC1445;}
	.st5{display:inline;fill:#AB1C3D;}
	.st6{display:inline;fill:#D9D6D6;}
	.st7{display:inline;fill:#BFBFBD;}
	.st8{clip-path:url(#SVGID_4_);fill:#A31C3B;}
	.st9{clip-path:url(#SVGID_4_);fill:#CC1445;}
	.st10{clip-path:url(#SVGID_6_);fill:#A31C3B;}
	.st11{clip-path:url(#SVGID_8_);fill:#A31C3B;}
	.st12{clip-path:url(#SVGID_8_);fill:#BFBFBD;}
	.st13{clip-path:url(#SVGID_8_);fill:#DEDEDB;}
	.st14{display:inline;fill:#7D7A7A;}
	.st15{clip-path:url(#SVGID_10_);fill:#CC1445;}
	.st16{clip-path:url(#SVGID_10_);fill:#707373;}
	.st17{clip-path:url(#SVGID_12_);fill:#CC1445;}
</style>
<g id="Layer_1" class="st0">
	<g class="st1">
		<defs>
			<rect id="SVGID_1_" x="264.6" y="5.1" width="219" height="290"/>
		</defs>
		<clipPath id="SVGID_2_">
			<use xlink:href="#SVGID_1_"  style="overflow:visible;"/>
		</clipPath>
		<path class="st2" d="M374.7,44.5c-26.4,0-47.9,21.5-47.9,47.9v64.1c0,26.4,21.5,47.9,47.9,47.9c26.4,0,47.9-21.5,47.9-47.9V92.4
			C422.6,66,401.1,44.5,374.7,44.5 M374.7,234.4c-42.9,0-77.9-34.9-77.9-77.9V92.4c0-42.9,34.9-77.9,77.9-77.9s77.9,34.9,77.9,77.9
			v64.1C452.6,199.5,417.7,234.4,374.7,234.4"/>
		<path class="st3" d="M374.7,38.2c-29.1,0-52.8,23.7-52.8,52.8v70.7c0,29.1,23.7,52.8,52.8,52.8s52.8-23.7,52.8-52.8V91
			C427.5,61.8,403.9,38.2,374.7,38.2 M374.7,247.5c-47.3,0-85.9-38.5-85.9-85.9V91c0-47.3,38.5-85.9,85.9-85.9
			c47.3,0,85.9,38.5,85.9,85.9v70.7C460.6,209,422.1,247.5,374.7,247.5"/>
	</g>
	<rect x="264.6" y="139.2" class="st4" width="110.2" height="144.2"/>
	<rect x="374.7" y="139.2" class="st5" width="108.8" height="144.2"/>
	<rect x="264.6" y="283.3" class="st6" width="219" height="11.8"/>
	<rect x="264.6" y="279.7" class="st7" width="219" height="11.1"/>
</g>
<g id="Layer_2" class="st0">
	<g class="st1">
		<defs>
			<rect id="SVGID_3_" x="212.6" y="25.3" width="322.4" height="250"/>
		</defs>
		<clipPath id="SVGID_4_">
			<use xlink:href="#SVGID_3_"  style="overflow:visible;"/>
		</clipPath>
		<path class="st8" d="M535.6,89.6c0-13.5-11-24.5-24.5-24.5l-273.8,0c-13.5,0-24.5,11-24.5,24.5l0,175.6l137.7,0
			c4.7,6.2,13.6,10.3,23.7,10.3c10.2,0,19-4.2,23.8-10.3l137.7,0L535.6,89.6z"/>
		<path class="st9" d="M535.5,82.2c0-12.9-11-23.4-24.5-23.4l-273.8,0c-13.5,0-24.5,10.5-24.5,23.4l0,167.5l137.7,0
			c4.7,5.9,13.6,9.9,23.7,9.9c10.2,0,19-4,23.8-9.9l137.7,0L535.5,82.2z"/>
	</g>
	<g class="st1">
		<defs>
			<rect id="SVGID_5_" x="212.6" y="25.3" width="322.4" height="250"/>
		</defs>
		<clipPath id="SVGID_6_">
			<use xlink:href="#SVGID_5_"  style="overflow:visible;"/>
		</clipPath>
		<path class="st10" d="M508.9,233.9c0,0-49.8-6.1-82.6,0.6c-19.2,3.9-52.2,14.1-52.2,14.1l20-53.6l113.9-6.7L508.9,233.9z"/>
	</g>
	<g class="st1">
		<defs>
			<rect id="SVGID_7_" x="212.6" y="25.3" width="322.4" height="250"/>
		</defs>
		<clipPath id="SVGID_8_">
			<use xlink:href="#SVGID_7_"  style="overflow:visible;"/>
		</clipPath>
		<path class="st11" d="M244.2,235.6c0,0,47.2-15.8,79.2-6.1c18.8,5.7,50.6,19,50.6,19l-14.8-55.2l-112.8-17.5L244.2,235.6z"/>
		<path class="st12" d="M374.1,58.8c0,0,38.7-49.1,139.5-28.4c0,51.7,0,184.7,0,184.7s-86-24.4-139.5,33.6"/>
		<path class="st13" d="M374.1,248.7c-53.4-58-139.5-33.6-139.5-33.6s0-133,0-184.7C335.3,9.7,374.1,58.8,374.1,58.8L374.1,248.7z"
			/>
	</g>
</g>
<g id="Layer_3" class="st0">
	
		<rect x="406.5" y="169" transform="matrix(0.7071 -0.7071 0.7071 0.7071 -12.9549 352.7924)" class="st14" width="25.8" height="46"/>
	<g class="st1">
		<defs>
			<rect id="SVGID_9_" x="232.2" y="4.9" width="289.8" height="290"/>
		</defs>
		<clipPath id="SVGID_10_">
			<use xlink:href="#SVGID_9_"  style="overflow:visible;"/>
		</clipPath>
		<path class="st15" d="M381.7,154.1c-28.4,28.5-74.6,28.6-103.1,0.3C250,126,249.9,79.7,278.3,51.2c14.2-14.3,32.8-21.4,51.5-21.5
			c18.7,0,37.4,7,51.6,21.2C409.9,79.3,410,125.6,381.7,154.1 M399,33.3c-38.2-38-100.3-37.9-138.4,0.4S222.8,134,261,172
			c19.1,19,44.2,28.5,69.3,28.4c17,0,33.9-4.5,49-13.3l19.5,19.4c1.7,1.7,4.4,1.7,6,0l0.9-1l27.7-27.7l-0.1-0.1l0.9-1
			c1.7-1.7,1.7-4.4,0-6l-19.6-19.5C436.3,114,431,65.2,399,33.3"/>
		<path class="st16" d="M521.2,276.8l-17.1,17.1c-3,3-7.7,3-10.7,0L419.6,220c-3-3-3-7.7,0-10.7l17.1-17.1c3-3,7.7-3,10.7,0
			l73.8,73.8C524.2,269.1,524.2,273.8,521.2,276.8"/>
	</g>
</g>
<g id="Layer_4">
	<g>
		<defs>
			<rect id="SVGID_11_" x="223.8" y="4.4" width="297.2" height="300.1"/>
		</defs>
		<clipPath id="SVGID_12_">
			<use xlink:href="#SVGID_11_"  style="overflow:visible;"/>
		</clipPath>
		<path class="st17" d="M397.1,137.1c0,12.1-10,22.1-22.1,22.1s-22.1-10-22.1-22.1V26.5c0-12.1,10-22.1,22.1-22.1s22.1,10,22.1,22.1
			V137.1z M375,291.9c-73.1,0-132.7-59.6-132.7-132.7c0-42,19.4-80.7,53-105.9c9.8-7.4,23.7-5.5,30.9,4.3c7.4,9.7,5.4,23.7-4.3,30.9
			c-22.5,16.9-35.4,42.7-35.4,70.7c0,48.7,39.7,88.5,88.5,88.5c48.7,0,88.5-39.7,88.5-88.5c0-28-13-53.7-35.4-70.7
			c-9.7-7.3-11.7-21.3-4.3-30.9c7.3-9.9,21.3-11.8,30.9-4.3c33.7,25.2,53,63.9,53,105.9C507.7,232.3,448.1,291.9,375,291.9"/>
	</g>
</g>
</svg>
